
<svg xmlns="http://www.w3.org/2000/svg" style="display:none">
  <defs>
    
    <symbol id="i-overview" viewBox="0 0 24 24" fill="none" stroke="currentColor" stroke-width="2" stroke-linecap="round" stroke-linejoin="round">
      <path d="M3 9l9-7 9 7v11a2 2 0 0 1-2 2H5a2 2 0 0 1-2-2z"></path>
      <polyline points="9 22 9 12 15 12 15 22"></polyline>
    </symbol>
    <symbol id="i-group" viewBox="0 0 24 24" fill="none" stroke="currentColor" stroke-width="2" stroke-linecap="round" stroke-linejoin="round">
      <path d="M17 21v-2a4 4 0 0 0-4-4H5a4 4 0 0 0-4 4v2"></path>
      <circle cx="9" cy="7" r="4"></circle>
      <path d="M23 21v-2a4 4 0 0 0-3-3.87"></path>
      <path d="M16 3.13a4 4 0 0 1 0 7.75"></path>
    </symbol>
    <symbol id="i-itinerary" viewBox="0 0 24 24" fill="none" stroke="currentColor" stroke-width="2" stroke-linecap="round" stroke-linejoin="round">
      <rect x="3" y="4" width="18" height="18" rx="2"></rect>
      <line x1="16" y1="2" x2="16" y2="6"></line>
      <line x1="8" y1="2" x2="8" y2="6"></line>
      <line x1="3" y1="10" x2="21" y2="10"></line>
    </symbol>
    <symbol id="i-spending" viewBox="0 0 24 24" fill="none" stroke="currentColor" stroke-width="2" stroke-linecap="round" stroke-linejoin="round">
      <line x1="18" y1="20" x2="18" y2="10"></line>
      <line x1="12" y1="20" x2="12" y2="4"></line>
      <line x1="6" y1="20" x2="6" y2="14"></line>
    </symbol>
    <symbol id="i-splitter" viewBox="0 0 24 24" fill="none" stroke="currentColor" stroke-width="2" stroke-linecap="round" stroke-linejoin="round">
      <circle cx="18" cy="5" r="3"></circle><circle cx="6" cy="12" r="3"></circle><circle cx="18" cy="19" r="3"></circle>
      <line x1="8.59" y1="13.51" x2="15.42" y2="17.49"></line>
      <line x1="15.41" y1="6.51" x2="8.59" y2="10.49"></line>
    </symbol>
    <symbol id="i-photos" viewBox="0 0 24 24" fill="none" stroke="currentColor" stroke-width="2" stroke-linecap="round" stroke-linejoin="round">
      <rect x="3" y="3" width="18" height="18" rx="2"></rect>
      <circle cx="8.5" cy="8.5" r="1.5"></circle>
      <polyline points="21 15 16 10 5 21"></polyline>
    </symbol>

    
    <symbol id="i-transport" viewBox="0 0 24 24" fill="none" stroke="currentColor" stroke-width="2" stroke-linecap="round" stroke-linejoin="round">
      <rect x="1" y="3" width="15" height="13"></rect>
      <polygon points="16 8 20 8 23 11 23 16 16 16 16 8"></polygon>
      <circle cx="5.5" cy="18.5" r="2.5"></circle>
      <circle cx="18.5" cy="18.5" r="2.5"></circle>
    </symbol>
    <symbol id="i-lodging" viewBox="0 0 24 24" fill="none" stroke="currentColor" stroke-width="2" stroke-linecap="round" stroke-linejoin="round">
      <path d="M2 20v-8a2 2 0 0 1 2-2h16a2 2 0 0 1 2 2v8"></path>
      <path d="M4 10V6a2 2 0 0 1 2-2h12a2 2 0 0 1 2 2v4"></path>
      <path d="M12 4v6"></path>
      <path d="M2 18h20"></path>
    </symbol>
    <symbol id="i-food" viewBox="0 0 24 24" fill="none" stroke="currentColor" stroke-width="2" stroke-linecap="round" stroke-linejoin="round">
      <path d="M18 8h1a4 4 0 0 1 0 8h-1"></path>
      <path d="M2 8h16v9a4 4 0 0 1-4 4H6a4 4 0 0 1-4-4V8z"></path>
      <line x1="6" y1="1" x2="6" y2="4"></line>
      <line x1="10" y1="1" x2="10" y2="4"></line>
      <line x1="14" y1="1" x2="14" y2="4"></line>
    </symbol>
    <symbol id="i-adventure" viewBox="0 0 24 24" fill="none" stroke="currentColor" stroke-width="2" stroke-linecap="round" stroke-linejoin="round">
      <polyline points="22 12 18 12 15 21 9 3 6 12 2 12"></polyline>
    </symbol>

    
    <symbol id="i-pin" viewBox="0 0 24 24" fill="none" stroke="currentColor" stroke-width="2" stroke-linecap="round" stroke-linejoin="round">
      <path d="M21 10c0 7-9 13-9 13s-9-6-9-13a9 9 0 0 1 18 0z"></path>
      <circle cx="12" cy="10" r="3"></circle>
    </symbol>
    <symbol id="i-briefcase" viewBox="0 0 24 24" fill="none" stroke="currentColor" stroke-width="2" stroke-linecap="round" stroke-linejoin="round">
      <rect x="2" y="7" width="20" height="14" rx="2"></rect>
      <path d="M16 7V5a2 2 0 0 0-2-2h-4a2 2 0 0 0-2 2v2"></path>
    </symbol>
    <symbol id="i-plus" viewBox="0 0 24 24" fill="none" stroke="currentColor" stroke-width="2.5" stroke-linecap="round" stroke-linejoin="round">
      <line x1="12" y1="5" x2="12" y2="19"></line>
      <line x1="5" y1="12" x2="19" y2="12"></line>
    </symbol>
    <symbol id="i-arrow-right" viewBox="0 0 24 24" fill="none" stroke="currentColor" stroke-width="2.5" stroke-linecap="round" stroke-linejoin="round">
      <path d="M5 12h14"></path><path d="m12 5 7 7-7 7"></path>
    </symbol>
    <symbol id="i-link" viewBox="0 0 24 24" fill="none" stroke="currentColor" stroke-width="2" stroke-linecap="round" stroke-linejoin="round">
      <path d="M10 13a5 5 0 0 0 7.54.54l3-3a5 5 0 0 0-7.07-7.07l-1.72 1.71"></path>
      <path d="M14 11a5 5 0 0 0-7.54-.54l-3 3a5 5 0 0 0 7.07 7.07l1.71-1.71"></path>
    </symbol>
    <symbol id="i-check" viewBox="0 0 24 24" fill="none" stroke="currentColor" stroke-width="2.5" stroke-linecap="round" stroke-linejoin="round">
      <polyline points="20 6 9 17 4 12"></polyline>
    </symbol>
    <symbol id="i-edit" viewBox="0 0 24 24" fill="none" stroke="currentColor" stroke-width="2" stroke-linecap="round" stroke-linejoin="round">
      <path d="M11 4H4a2 2 0 0 0-2 2v14a2 2 0 0 0 2 2h14a2 2 0 0 0 2-2v-7"></path>
      <path d="M18.5 2.5a2.121 2.121 0 0 1 3 3L12 15l-4 1 1-4 9.5-9.5z"></path>
    </symbol>
    <symbol id="i-trash" viewBox="0 0 24 24" fill="none" stroke="currentColor" stroke-width="2" stroke-linecap="round" stroke-linejoin="round">
      <polyline points="3 6 5 6 21 6"></polyline>
      <path d="M19 6v14a2 2 0 0 1-2 2H7a2 2 0 0 1-2-2V6m3 0V4a1 1 0 0 1 1-1h4a1 1 0 0 1 1 1v2"></path>
    </symbol>
    <symbol id="i-list" viewBox="0 0 24 24" fill="none" stroke="currentColor" stroke-width="2.5" stroke-linecap="round" stroke-linejoin="round">
      <line x1="8" y1="6" x2="21" y2="6"></line>
      <line x1="8" y1="12" x2="21" y2="12"></line>
      <line x1="8" y1="18" x2="21" y2="18"></line>
      <line x1="3" y1="6" x2="3.01" y2="6"></line>
      <line x1="3" y1="12" x2="3.01" y2="12"></line>
      <line x1="3" y1="18" x2="3.01" y2="18"></line>
    </symbol>
    <symbol id="i-grip" viewBox="0 0 24 24" fill="currentColor">
      <circle cx="9" cy="5" r="1.5"></circle><circle cx="15" cy="5" r="1.5"></circle>
      <circle cx="9" cy="12" r="1.5"></circle><circle cx="15" cy="12" r="1.5"></circle>
      <circle cx="9" cy="19" r="1.5"></circle><circle cx="15" cy="19" r="1.5"></circle>
    </symbol>
    <symbol id="i-sun" viewBox="0 0 24 24" fill="none" stroke="currentColor" stroke-width="2" stroke-linecap="round" stroke-linejoin="round">
      <circle cx="12" cy="12" r="4"></circle>
      <path d="M12 2v2M12 20v2M4.93 4.93l1.41 1.41M17.66 17.66l1.41 1.41M2 12h2M20 12h2M4.93 19.07l1.41-1.41M17.66 6.34l1.41-1.41"></path>
    </symbol>
    <symbol id="i-moon" viewBox="0 0 24 24" fill="none" stroke="currentColor" stroke-width="2" stroke-linecap="round" stroke-linejoin="round">
      <path d="M21 12.79A9 9 0 1 1 11.21 3 7 7 0 0 0 21 12.79z"></path>
    </symbol>

    <!-- Empty state illustrations -->
    <symbol id="i-empty-trip" viewBox="0 0 24 24" fill="none" stroke="currentColor" stroke-width="2" stroke-linecap="round" stroke-linejoin="round">
      <path d="M9 14 L21 4 L17 19 L13 14 Z"/>
      <path d="M13 14 L21 4" stroke-width="1.4" opacity="0.55"/>
      <path d="M2 17 C 4 14, 6 15, 9 14" stroke-dasharray="0.1 2" stroke-width="1.7" opacity="0.65"/>
    </symbol>
    <symbol id="i-empty-itinerary" viewBox="0 0 24 24" fill="none" stroke="currentColor" stroke-width="2" stroke-linecap="round" stroke-linejoin="round">
      <path d="M3 7 L9 5 L15 7 L21 5 L21 17 L15 19 L9 17 L3 19 Z"/>
      <line x1="9" y1="5" x2="9" y2="17"/>
      <line x1="15" y1="7" x2="15" y2="19"/>
      <path d="M6 14 Q 9 11, 12 12 Q 15 14, 17 9.5" stroke-dasharray="0.1 1.8" stroke-width="1.6" opacity="0.7"/>
      <circle cx="17" cy="9.5" r="1.2" fill="currentColor" stroke="none"/>
    </symbol>
    <symbol id="i-empty-search" viewBox="0 0 24 24" fill="none" stroke="currentColor" stroke-width="2" stroke-linecap="round" stroke-linejoin="round">
      <circle cx="10" cy="10" r="6"/>
      <line x1="14.5" y1="14.5" x2="20" y2="20"/>
      <line x1="8" y1="10" x2="12" y2="10" stroke-width="1.6" opacity="0.6"/>
    </symbol>
    <symbol id="i-empty-photos" viewBox="0 0 24 24" fill="none" stroke="currentColor" stroke-width="2" stroke-linecap="round" stroke-linejoin="round">
      <rect x="3" y="7" width="18" height="13" rx="2"/>
      <path d="M8 7 L9.5 4.5 L14.5 4.5 L16 7"/>
      <circle cx="12" cy="13.5" r="3.5"/>
      <circle cx="12" cy="13.5" r="1.4" opacity="0.55"/>
      <circle cx="17.5" cy="10" r="0.6" fill="currentColor" stroke="none"/>
    </symbol>
    <symbol id="i-empty-spending" viewBox="0 0 24 24" fill="none" stroke="currentColor" stroke-width="2" stroke-linecap="round" stroke-linejoin="round">
      <path d="M5 3 L19 3 L19 19 L17 20.5 L15 19 L13 20.5 L11 19 L9 20.5 L7 19 L5 20.5 Z"/>
      <line x1="8" y1="8" x2="16" y2="8"/>
      <line x1="8" y1="11" x2="14" y2="11"/>
      <line x1="8" y1="14" x2="15" y2="14"/>
      <line x1="8" y1="17" x2="16" y2="17" stroke-width="2.5"/>
    </symbol>
    <symbol id="i-empty-crew" viewBox="0 0 24 24" fill="none" stroke="currentColor" stroke-width="2" stroke-linecap="round" stroke-linejoin="round">
      <circle cx="4.5" cy="9" r="2"/>
      <circle cx="12" cy="9" r="2"/>
      <circle cx="19.5" cy="9" r="2"/>
      <path d="M1.5 19 C 1.5 16, 2.5 14, 4.5 14 C 6.5 14, 7.5 16, 7.5 19"/>
      <path d="M9 19 C 9 16, 10 14, 12 14 C 14 14, 15 16, 15 19"/>
      <path d="M16.5 19 C 16.5 16, 17.5 14, 19.5 14 C 21.5 14, 22.5 16, 22.5 19"/>
    </symbol>
    <symbol id="i-empty-split" viewBox="0 0 24 24" fill="none" stroke="currentColor" stroke-width="2" stroke-linecap="round" stroke-linejoin="round">
      <circle cx="7" cy="8" r="2.5"/>
      <circle cx="17" cy="8" r="2.5"/>
      <path d="M3 19 C 3 15.5, 4.5 13.5, 7 13.5 C 9.5 13.5, 11 15.5, 11 19"/>
      <path d="M13 19 C 13 15.5, 14.5 13.5, 17 13.5 C 19.5 13.5, 21 15.5, 21 19"/>
      <path d="M11.3 11 L 12.7 11" stroke-dasharray="0.5 1.5" stroke-width="1.6" opacity="0.65"/>
      <circle cx="12" cy="11" r="0.55" fill="currentColor" stroke="none"/>
    </symbol>
    <symbol id="i-empty-settled" viewBox="0 0 24 24" fill="none" stroke="currentColor" stroke-width="2" stroke-linecap="round" stroke-linejoin="round">
      <circle cx="12" cy="12" r="7"/>
      <polyline points="9 12 11.5 14.5 15.5 10"/>
      <circle cx="3.5" cy="7" r="0.55" fill="currentColor" stroke="none" opacity="0.7"/>
      <circle cx="20.5" cy="6" r="0.55" fill="currentColor" stroke="none" opacity="0.7"/>
      <circle cx="22" cy="14.5" r="0.55" fill="currentColor" stroke="none" opacity="0.7"/>
      <circle cx="3" cy="16" r="0.55" fill="currentColor" stroke="none" opacity="0.7"/>
      <line x1="2" y1="11" x2="3.2" y2="11" stroke-width="1.5" opacity="0.6"/>
      <line x1="20.8" y1="11" x2="22" y2="11" stroke-width="1.5" opacity="0.6"/>
    </symbol>
  </defs>
</svg>