<?xml version="1.0"?>

<svg xmlns="http://www.w3.org/2000/svg" viewBox="0 -6.20 154 64.20" width="154" height="65" role="img" aria-label="Planis">
  <path d="M12.93 56L3.08 56L3.08 15.27L19.91 15.27Q24.48 15.27 27.81 17.05Q31.14 18.83 32.95 22.00Q34.76 25.18 34.76 29.37L34.76 29.37Q34.76 33.59 32.92 36.74Q31.08 39.89 27.68 41.62Q24.28 43.35 19.61 43.35L19.61 43.35L12.93 43.35L12.93 56ZM12.93 23.21L12.93 35.60L17.78 35.60Q20.01 35.60 21.51 34.82Q23.01 34.05 23.78 32.64Q24.56 31.24 24.56 29.37L24.56 29.37Q24.56 27.48 23.78 26.10Q23.01 24.72 21.50 23.96Q19.99 23.21 17.78 23.21L17.78 23.21L12.93 23.21Z M36.79 15.27L46.52 15.27L46.52 56L36.79 56L36.79 15.27Z M58.49 56.52L58.49 56.52Q55.57 56.52 53.31 55.53Q51.06 54.55 49.75 52.55Q48.45 50.55 48.45 47.53L48.45 47.53Q48.45 44.98 49.35 43.23Q50.24 41.48 51.81 40.39Q53.38 39.30 55.43 38.73Q57.48 38.16 59.81 37.96L59.81 37.96Q62.41 37.72 64.00 37.46Q65.59 37.19 66.32 36.68Q67.04 36.17 67.04 35.24L67.04 35.24L67.04 35.14Q67.04 33.61 65.99 32.77Q64.94 31.94 63.15 31.94L63.15 31.94Q61.22 31.94 60.04 32.77Q58.87 33.61 58.55 35.08L58.55 35.08L49.58 34.76Q49.98 31.98 51.64 29.78Q53.30 27.58 56.22 26.32Q59.13 25.06 63.23 25.06L63.23 25.06Q66.15 25.06 68.62 25.74Q71.08 26.43 72.91 27.73Q74.74 29.03 75.75 30.92Q76.75 32.81 76.75 35.24L76.75 35.24L76.75 56L67.60 56L67.60 51.74L67.36 51.74Q66.55 53.30 65.28 54.37Q64.02 55.44 62.32 55.98Q60.62 56.52 58.49 56.52ZM61.50 50.15L61.50 50.15Q63.07 50.15 64.33 49.52Q65.59 48.88 66.35 47.76Q67.10 46.63 67.10 45.14L67.10 45.14L67.10 42.24Q66.69 42.46 66.10 42.64Q65.51 42.82 64.82 42.97Q64.12 43.13 63.39 43.25Q62.65 43.37 61.97 43.47L61.97 43.47Q60.60 43.69 59.64 44.15Q58.67 44.61 58.17 45.33Q57.66 46.06 57.66 47.05L57.66 47.05Q57.66 48.56 58.74 49.36Q59.83 50.15 61.50 50.15Z M89.60 38.58L89.60 38.58L89.60 56L79.88 56L79.88 25.45L89.12 25.45L89.12 31.06L89.46 31.06Q90.47 28.26 92.92 26.66Q95.37 25.06 98.75 25.06L98.75 25.06Q101.97 25.06 104.35 26.50Q106.72 27.94 108.04 30.52Q109.37 33.09 109.35 36.53L109.35 36.53L109.35 56L99.62 56L99.62 38.44Q99.64 35.89 98.34 34.46Q97.04 33.03 94.73 33.03L94.73 33.03Q93.20 33.03 92.04 33.70Q90.87 34.36 90.25 35.60Q89.62 36.83 89.60 38.58Z M122.32 56L112.59 56L112.59 25.45L122.32 25.45L122.32 56Z M152.35 34.78L152.35 34.78L143.42 35.02Q143.28 34.07 142.66 33.32Q142.05 32.57 141.06 32.15Q140.08 31.72 138.79 31.72L138.79 31.72Q137.10 31.72 135.91 32.39Q134.73 33.07 134.75 34.22L134.75 34.22Q134.73 35.12 135.48 35.78Q136.22 36.43 138.15 36.83L138.15 36.83L144.04 37.94Q148.61 38.82 150.85 40.85Q153.09 42.88 153.11 46.22L153.11 46.22Q153.09 49.36 151.25 51.68Q149.41 54.01 146.22 55.29Q143.04 56.58 138.95 56.58L138.95 56.58Q132.40 56.58 128.63 53.88Q124.87 51.19 124.33 46.65L124.33 46.65L133.93 46.41Q134.25 48.09 135.59 48.96Q136.92 49.84 138.99 49.84L138.99 49.84Q140.86 49.84 142.03 49.14Q143.20 48.44 143.22 47.29L143.22 47.29Q143.20 46.26 142.31 45.63Q141.41 45.00 139.50 44.64L139.50 44.64L134.17 43.63Q129.58 42.80 127.33 40.54Q125.09 38.28 125.11 34.78L125.11 34.78Q125.09 31.72 126.74 29.54Q128.39 27.36 131.43 26.21Q134.47 25.06 138.61 25.06L138.61 25.06Q144.81 25.06 148.39 27.65Q151.97 30.25 152.35 34.78Z" fill="#0f172a"></path>
  <g transform="translate(109.20 1.30)">
    <path d="M8.5 0 C14.62 0 17 4.305 17 9.597 C17 15.12 11.645 19.11 8.5 21 C5.355 19.11 0 15.12 0 9.597 C0 4.305 2.38 0 8.5 0 Z" fill="#0d9488"></path>
    <circle cx="8.5" cy="9.45" r="3.57" fill="#ffffff"></circle>
  </g>
</svg>